<svg width="36" height="36" viewBox="0 0 36 36" fill="none" xmlns="http://www.w3.org/2000/svg">
<rect x="0.5" y="0.5" width="35" height="35" fill="white" fill-opacity="0.5"/>
<rect x="0.5" y="0.5" width="35" height="35" stroke="#181920"/>
<path d="M27.0291 21.9417C27.9704 21.9417 28.66 22.1868 29.098 22.677C29.5424 23.1673 29.7647 23.8471 29.7647 24.7164C29.7647 25.5989 29.5457 26.2819 29.1078 26.7657C28.6698 27.2494 27.9769 27.4912 27.0291 27.4912C26.2382 27.4912 25.6238 27.318 25.1858 26.9716C24.7479 26.6186 24.4701 26.1185 24.3524 25.4714H23.7347V26.0107C23.7347 26.3637 23.7412 26.8343 23.7543 27.4226H21.7051C21.7182 26.2983 21.7247 25.3864 21.7247 24.687C21.7247 23.9811 21.7182 23.0986 21.7051 22.0397H23.7543C23.7412 22.7849 23.7347 23.4124 23.7347 23.9222H24.3622C24.4799 23.2947 24.7577 22.8077 25.1956 22.4613C25.6336 22.1149 26.2447 21.9417 27.0291 21.9417ZM27.0291 25.942C27.3037 25.942 27.5226 25.8375 27.6861 25.6283C27.8495 25.4191 27.9312 25.1152 27.9312 24.7164C27.9312 24.3242 27.8495 24.0236 27.6861 23.8144C27.5226 23.6052 27.3037 23.5006 27.0291 23.5006C26.7481 23.5006 26.5258 23.6052 26.3624 23.8144C26.2055 24.0236 26.1271 24.3242 26.1271 24.7164C26.1271 25.1152 26.2088 25.4191 26.3722 25.6283C26.5356 25.8375 26.7546 25.942 27.0291 25.942Z" fill="#181920"/>
<path d="M14.0189 22.0398C13.9862 23.0334 13.9698 23.9256 13.9698 24.7165C13.9698 25.5075 13.9862 26.3997 14.0189 27.3933H11.8912V25.6088H9.96946V27.3933H7.8418C7.87448 26.6481 7.89082 25.7558 7.89082 24.7165C7.89082 23.6772 7.87448 22.785 7.8418 22.0398H9.96946V23.8243H11.8912V22.0398H14.0189Z" fill="#181920"/>
<path d="M27.7594 12.2774H24.563C24.6153 12.565 24.7428 12.8003 24.9454 12.9833C25.1546 13.1598 25.4488 13.2481 25.8279 13.2481C26.1024 13.2481 26.3606 13.1958 26.6025 13.0912C26.8443 12.9801 27.0371 12.8265 27.181 12.6304C27.6189 12.8461 28.2007 13.0781 28.9262 13.3265C28.7236 13.7841 28.3543 14.1501 27.8183 14.4247C27.2888 14.6927 26.5959 14.8267 25.7396 14.8267C24.6284 14.8267 23.8048 14.5717 23.2688 14.0619C22.7393 13.5455 22.4746 12.869 22.4746 12.0323C22.4746 11.2152 22.7393 10.5517 23.2688 10.0419C23.7983 9.53203 24.6219 9.2771 25.7396 9.2771C26.4064 9.2771 26.9849 9.38822 27.4751 9.61047C27.9653 9.83271 28.3412 10.1432 28.6027 10.5419C28.8641 10.9341 28.9949 11.3851 28.9949 11.895C28.9949 12.065 28.9883 12.1924 28.9752 12.2774H27.7594ZM25.8769 10.7576C25.5501 10.7576 25.2821 10.8197 25.0729 10.9439C24.8637 11.0681 24.7167 11.2381 24.6317 11.4538H26.9456C26.8672 11.2446 26.7397 11.0779 26.5632 10.9537C26.3868 10.823 26.158 10.7576 25.8769 10.7576Z" fill="#181920"/>
<path d="M14.485 9.37524L14.8576 14.7287H12.9555L12.8378 10.895L12.0926 14.7287H9.76888L9.01391 10.944L8.90605 14.7287H7.00391L7.37649 9.37524H10.2787L10.9161 12.8756L11.4847 9.37524H14.485Z" fill="#181920"/>
</svg>
