<svg width="142" height="52" viewBox="0 0 142 52" fill="none" xmlns="http://www.w3.org/2000/svg">
<path d="M137.933 11.498H128.479C128.633 12.3487 129.01 13.0447 129.61 13.586C130.228 14.108 131.098 14.369 132.22 14.369C133.032 14.369 133.795 14.2144 134.511 13.905C135.226 13.5764 135.796 13.122 136.222 12.542C137.517 13.18 139.238 13.8664 141.384 14.601C140.784 15.9544 139.692 17.037 138.107 17.849C136.541 18.6417 134.491 19.038 131.959 19.038C128.672 19.038 126.236 18.284 124.651 16.776C123.085 15.2487 122.302 13.2477 122.302 10.773C122.302 8.35636 123.085 6.39402 124.651 4.88602C126.217 3.37802 128.653 2.62402 131.959 2.62402C133.931 2.62402 135.642 2.95269 137.092 3.61002C138.542 4.26736 139.653 5.18569 140.427 6.36502C141.2 7.52502 141.587 8.85902 141.587 10.367C141.587 10.8697 141.567 11.2467 141.529 11.498H137.933ZM132.365 7.00302C131.398 7.00302 130.605 7.18669 129.987 7.55402C129.368 7.92136 128.933 8.42402 128.682 9.06202H135.526C135.294 8.44336 134.917 7.95036 134.395 7.58302C133.873 7.19636 133.196 7.00302 132.365 7.00302Z" fill="#181920"/>
<path d="M108.219 11.498H98.7649C98.9196 12.3487 99.2966 13.0447 99.8959 13.586C100.515 14.108 101.385 14.369 102.506 14.369C103.318 14.369 104.082 14.2144 104.797 13.905C105.512 13.5764 106.083 13.122 106.508 12.542C107.803 13.18 109.524 13.8664 111.67 14.601C111.071 15.9544 109.978 17.037 108.393 17.849C106.827 18.6417 104.778 19.038 102.245 19.038C98.9582 19.038 96.5222 18.284 94.9369 16.776C93.3709 15.2487 92.5879 13.2477 92.5879 10.773C92.5879 8.35636 93.3709 6.39402 94.9369 4.88602C96.5029 3.37802 98.9389 2.62402 102.245 2.62402C104.217 2.62402 105.928 2.95269 107.378 3.61002C108.828 4.26736 109.94 5.18569 110.713 6.36502C111.486 7.52502 111.873 8.85902 111.873 10.367C111.873 10.8697 111.854 11.2467 111.815 11.498H108.219ZM102.651 7.00302C101.684 7.00302 100.892 7.18669 100.273 7.55402C99.6542 7.92136 99.2192 8.42402 98.9679 9.06202H105.812C105.58 8.44336 105.203 7.95036 104.681 7.58302C104.159 7.19636 103.482 7.00302 102.651 7.00302Z" fill="#181920"/>
<path d="M76.2013 14.2821L78.6953 2.91406H84.4663L81.2473 18.7481H73.5043L71.6773 11.3531L69.6183 18.7481H62.1653L58.9463 2.91406H64.7173L67.1823 14.2531L68.8643 2.91406H74.5773L76.2013 14.2821Z" fill="#181920"/>
<path d="M40.5518 19.038C37.2458 19.038 34.8098 18.284 33.2438 16.776C31.6972 15.2487 30.9238 13.2477 30.9238 10.773C30.9238 8.35636 31.6972 6.39402 33.2438 4.88602C34.8098 3.37802 37.2458 2.62402 40.5518 2.62402C42.7752 2.62402 44.6312 2.99136 46.1198 3.72602C47.6278 4.44136 48.7395 5.41769 49.4548 6.65502C50.1702 7.87302 50.5278 9.24569 50.5278 10.773C50.5278 13.267 49.6965 15.268 48.0338 16.776C46.3905 18.284 43.8965 19.038 40.5518 19.038ZM40.6678 14.108C41.9245 14.108 42.8622 13.8084 43.4808 13.209C44.0995 12.6097 44.4088 11.8074 44.4088 10.802C44.4088 9.85469 44.0995 9.08136 43.4808 8.48202C42.8622 7.86336 41.9245 7.55402 40.6678 7.55402C39.4112 7.55402 38.4928 7.85369 37.9128 8.45302C37.3328 9.05236 37.0428 9.83536 37.0428 10.802C37.0428 11.8074 37.3328 12.6097 37.9128 13.209C38.4928 13.8084 39.4112 14.108 40.6678 14.108Z" fill="#181920"/>
<path d="M10.4981 19.038C7.19212 19.038 4.75612 18.284 3.19012 16.776C1.64345 15.2487 0.870117 13.2477 0.870117 10.773C0.870117 8.35636 1.64345 6.39402 3.19012 4.88602C4.75612 3.37802 7.19212 2.62402 10.4981 2.62402C12.7215 2.62402 14.5775 2.99136 16.0661 3.72602C17.5741 4.44136 18.6858 5.41769 19.4011 6.65502C20.1165 7.87302 20.4741 9.24569 20.4741 10.773C20.4741 13.267 19.6428 15.268 17.9801 16.776C16.3368 18.284 13.8428 19.038 10.4981 19.038ZM10.6141 14.108C11.8708 14.108 12.8085 13.8084 13.4271 13.209C14.0458 12.6097 14.3551 11.8074 14.3551 10.802C14.3551 9.85469 14.0458 9.08136 13.4271 8.48202C12.8085 7.86336 11.8708 7.55402 10.6141 7.55402C9.35745 7.55402 8.43912 7.85369 7.85912 8.45302C7.27912 9.05236 6.98912 9.83536 6.98912 10.802C6.98912 11.8074 7.27912 12.6097 7.85912 13.209C8.43912 13.8084 9.35745 14.108 10.6141 14.108Z" fill="#181920"/>
<path d="M136.941 49.1558C137.029 46.9998 137.073 45.0125 137.073 43.1938C137.073 42.5485 136.912 42.0352 136.589 41.6538C136.281 41.2725 135.885 41.0818 135.401 41.0818C134.917 41.0818 134.507 41.3018 134.169 41.7418C133.832 42.1672 133.634 42.7538 133.575 43.5018C133.546 44.6165 133.531 45.4085 133.531 45.8778C133.531 46.8752 133.561 47.9678 133.619 49.1558H128.361C128.479 47.0438 128.537 45.0492 128.537 43.1718C128.537 41.2945 128.479 39.2852 128.361 37.1438C129.329 37.1878 130.07 37.2098 130.583 37.2098C131.126 37.2098 131.867 37.1878 132.805 37.1438L133.443 40.3778C133.781 39.2045 134.309 38.3392 135.027 37.7818C135.746 37.2098 136.582 36.9238 137.535 36.9238C138.415 36.9238 139.178 37.1218 139.823 37.5178C140.469 37.8992 140.953 38.4198 141.275 39.0798C141.613 39.7398 141.781 40.4805 141.781 41.3018V44.4698C141.781 46.4205 141.818 47.9825 141.891 49.1558H136.941Z" fill="#BEF38D"/>
<path d="M100.987 49.3758C98.4786 49.3758 96.6306 48.8038 95.4426 47.6598C94.2693 46.5012 93.6826 44.9832 93.6826 43.1058C93.6826 41.2725 94.2693 39.7838 95.4426 38.6398C96.6306 37.4958 98.4786 36.9238 100.987 36.9238C102.673 36.9238 104.081 37.2025 105.211 37.7598C106.355 38.3025 107.198 39.0432 107.741 39.9818C108.283 40.9058 108.555 41.9472 108.555 43.1058C108.555 44.9978 107.924 46.5158 106.663 47.6598C105.416 48.8038 103.524 49.3758 100.987 49.3758ZM101.075 45.6358C102.028 45.6358 102.739 45.4085 103.209 44.9538C103.678 44.4992 103.913 43.8905 103.913 43.1278C103.913 42.4092 103.678 41.8225 103.209 41.3678C102.739 40.8985 102.028 40.6638 101.075 40.6638C100.121 40.6638 99.4246 40.8912 98.9846 41.3458C98.5446 41.8005 98.3246 42.3945 98.3246 43.1278C98.3246 43.8905 98.5446 44.4992 98.9846 44.9538C99.4246 45.4085 100.121 45.6358 101.075 45.6358Z" fill="#BEF38D"/>
<path d="M70.9419 35.8459C70.0179 35.8459 69.3285 35.6185 68.8739 35.1639C68.4339 34.7092 68.2139 34.1152 68.2139 33.3819C68.2139 32.6632 68.4339 32.0692 68.8739 31.5999C69.3285 31.1305 70.0179 30.8959 70.9419 30.8959C71.8219 30.8959 72.4965 31.1379 72.9659 31.6219C73.4352 32.0912 73.6699 32.6779 73.6699 33.3819C73.6699 34.1152 73.4425 34.7092 72.9879 35.1639C72.5332 35.6185 71.8512 35.8459 70.9419 35.8459ZM68.3899 49.1559C68.4925 46.7945 68.5439 44.8439 68.5439 43.3039C68.5439 41.4705 68.4852 39.4172 68.3679 37.1439H73.6479C73.5305 39.3292 73.4719 41.3825 73.4719 43.3039C73.4719 44.9172 73.5232 46.8679 73.6259 49.1559H68.3899Z" fill="#BEF38D"/>
<path d="M43.0165 49.1558C43.1045 46.9998 43.1485 45.0125 43.1485 43.1938C43.1485 42.5485 42.9872 42.0352 42.6645 41.6538C42.3565 41.2725 41.9605 41.0818 41.4765 41.0818C40.9925 41.0818 40.5819 41.3018 40.2445 41.7418C39.9072 42.1672 39.7092 42.7538 39.6505 43.5018C39.6212 44.6165 39.6065 45.4085 39.6065 45.8778C39.6065 46.8752 39.6359 47.9678 39.6945 49.1558H34.4365C34.5539 47.0438 34.6125 45.0492 34.6125 43.1718C34.6125 41.2945 34.5539 39.2852 34.4365 37.1438C35.4045 37.1878 36.1452 37.2098 36.6585 37.2098C37.2012 37.2098 37.9419 37.1878 38.8805 37.1438L39.5185 40.3778C39.8559 39.2045 40.3839 38.3392 41.1025 37.7818C41.8212 37.2098 42.6572 36.9238 43.6105 36.9238C44.4905 36.9238 45.2532 37.1218 45.8985 37.5178C46.5439 37.8992 47.0279 38.4198 47.3505 39.0798C47.6879 39.7398 47.8565 40.4805 47.8565 41.3018V44.4698C47.8565 46.4205 47.8932 47.9825 47.9665 49.1558H43.0165Z" fill="#BEF38D"/>
<path d="M14.4099 37.1438C14.3072 38.9918 14.2559 40.9865 14.2559 43.1278C14.2559 45.2838 14.3072 47.2931 14.4099 49.1558C13.4712 49.1118 12.7305 49.0898 12.1879 49.0898C11.6746 49.0898 10.9339 49.1118 9.96588 49.1558L9.32788 45.9218C8.99055 47.0951 8.46255 47.9678 7.74388 48.5398C7.02522 49.0971 6.18922 49.3758 5.23588 49.3758C4.35588 49.3758 3.59322 49.1851 2.94788 48.8038C2.30255 48.4078 1.81122 47.8798 1.47388 47.2198C1.15122 46.5598 0.989883 45.8191 0.989883 44.9978V41.8298C0.989883 39.8791 0.953216 38.3171 0.879883 37.1438H5.82988C5.74188 39.2998 5.69788 41.4338 5.69788 43.5458C5.69788 44.1911 5.85188 44.7045 6.15988 45.0858C6.48255 45.4671 6.88588 45.6578 7.36988 45.6578C7.82455 45.6578 8.22055 45.4598 8.55788 45.0638C8.90988 44.6531 9.12255 44.0958 9.19588 43.3918V42.8858C9.22522 41.7418 9.23988 40.9498 9.23988 40.5098C9.23988 39.4978 9.21055 38.3758 9.15188 37.1438H14.4099Z" fill="#BEF38D"/>
</svg>
